PathFileType	4	(X/Y/Z)	C:/Users/opensim2020/Desktop/walking_exp_matlab/subject03_walking13_straight_02.trc	
DataRate	CameraRate	NumFrames	NumMarkers	Units	OrigDataRate	OrigDataStartFrame	OrigNumFrames	
100.00	100.00	5	46	mm	100.00	1247	193	
Frame#	Time	LFHD			RFHD			LBHD			RBHD			C7			T10			CLAV			STRN			RBAK			LSHO			LUPA			LELB			LFRM			LWRA			LWRB			LFIN			RSHO			RUPA			RELB			RFRM			RWRA			RWRB			RFIN			LASI			RASI			LPSI			RPSI			LTHI			LKNE			LTIB			LANK			LHEE			LTOE			RTHI			RKNE			RTIB			RANK			RHEE			RTOE			*39			*40			*41			*42			*43			*44			*45			
		X1	Y1	Z1	X2	Y2	Z2	X3	Y3	Z3	X4	Y4	Z4	X5	Y5	Z5	X6	Y6	Z6	X7	Y7	Z7	X8	Y8	Z8	X9	Y9	Z9	X10	Y10	Z10	X11	Y11	Z11	X12	Y12	Z12	X13	Y13	Z13	X14	Y14	Z14	X15	Y15	Z15	X16	Y16	Z16	X17	Y17	Z17	X18	Y18	Z18	X19	Y19	Z19	X20	Y20	Z20	X21	Y21	Z21	X22	Y22	Z22	X23	Y23	Z23	X24	Y24	Z24	X25	Y25	Z25	X26	Y26	Z26	X27	Y27	Z27	X28	Y28	Z28	X29	Y29	Z29	X30	Y30	Z30	X31	Y31	Z31	X32	Y32	Z32	X33	Y33	Z33	X34	Y34	Z34	X35	Y35	Z35	X36	Y36	Z36	X37	Y37	Z37	X38	Y38	Z38	X39	Y39	Z39	X40	Y40	Z40	X41	Y41	Z41	X42	Y42	Z42	X43	Y43	Z43	X44	Y44	Z44	X45	Y45	Z45	X46	Y46	Z46	

169	1.680	1458.60559	-795.43121	1606.39319	1325.76819	-786.30847	1608.08765	1463.06433	-677.32275	1541.17603	1331.74719	-672.85754	1543.00073	1399.83691	-668.05151	1381.64636	1395.08765	-665.50104	1068.00830	1404.44580	-799.49451	1318.86963	1421.35242	-857.78442	1158.94299	1309.43127	-636.51587	1201.02917	1556.02429	-739.55194	1355.36084	1636.76501	-779.65662	1171.73572	1652.12341	-834.90625	1063.54663	1641.82971	-931.51440	980.62573	1598.91846	-1019.69928	908.08759	1649.00391	-1002.60992	892.22070	1635.08972	-1071.93860	849.57843	1241.91187	-754.54480	1333.94885	1179.74475	-733.59033	1109.96021	1172.13892	-731.64215	995.74768	1170.92261	-717.04865	859.14728	1207.28857	-721.56915	759.31195	1160.98352	-691.79602	761.40546	1176.37488	-687.76135	685.71832	1538.55566	-814.57697	914.86371	1302.64050	-858.12750	916.58044	1454.81360	-665.56647	936.14264	1309.90137	-692.86707	936.80438	1572.74768	-697.89697	625.93231	1547.05408	-654.82874	450.29926	1536.42395	-510.93460	306.83383	1488.39429	-386.71460	137.68010	1449.08923	-338.14163	130.64896	1457.30078	-498.65024	34.33314	1252.45715	-883.91083	628.92670	1301.27869	-961.25183	474.53073	1301.35522	-972.11511	281.42761	1349.18628	-1007.15784	70.48120	1403.88892	-964.94354	40.12780	1361.38379	-1145.91101	41.66676				1413.50269	-699.58673	1652.39856															 
170	1.690	1458.17932	-806.90912	1606.91382	1325.32007	-798.76007	1608.81689	1461.60034	-689.13110	1541.16101	1330.30322	-685.60297	1543.21704	1398.20410	-681.14642	1381.27979	1394.73975	-680.76251	1067.68164	1403.45984	-813.08972	1319.45496	1420.63428	-872.44659	1160.00537	1308.56384	-650.72339	1200.08594	1555.01721	-751.83490	1355.46082	1635.48596	-791.29999	1171.05664	1651.03125	-846.27344	1062.77576	1640.63538	-943.92340	981.27148	1597.61182	-1033.37378	910.64996	1647.26514	-1016.11316	893.70392	1633.52124	-1086.26331	852.62402	1240.65625	-768.18298	1333.90833	1178.67468	-747.50696	1109.90356	1170.95129	-745.69128	995.66284	1170.16846	-731.30273	858.92566	1207.36182	-735.46667	758.62439	1160.38440	-706.37598	761.16840	1176.29260	-701.75366	685.45972	1537.66528	-830.48950	914.36438	1302.28662	-874.15973	917.22180	1453.46790	-681.41650	935.58679	1308.35217	-709.20782	937.98682	1573.83777	-715.35510	625.03400	1550.38342	-673.06921	448.90744	1538.18140	-525.02008	309.62750	1488.84985	-395.74307	145.31134	1448.75183	-348.14542	141.33049	1457.76038	-499.89780	34.55586	1250.91760	-896.99823	628.75684	1301.25916	-977.96576	475.85641	1300.86548	-986.73438	283.21234	1350.11548	-1010.00372	70.41486	1403.87451	-966.16034	40.90485	1361.32251	-1148.72290	39.49211				1412.25732	-710.90222	1652.29565															 
171	1.700	1457.63611	-818.39447	1607.59070	1324.75281	-811.13757	1609.69983	1460.20581	-700.91394	1541.40210	1328.87329	-698.31042	1543.68286	1396.70471	-694.36896	1381.40710	1394.32788	-695.69604	1067.94556	1402.43127	-826.22217	1320.30652	1419.73962	-886.97125	1161.33459	1307.47375	-665.03131	1199.55481	1554.10071	-764.34497	1355.91248	1634.23352	-802.85809	1170.61389	1649.82031	-857.39301	1062.19861	1639.40173	-955.82953	981.84491	1596.24927	-1046.30042	912.82269	1645.50549	-1028.90332	894.99493	1631.95361	-1099.80933	855.27789	1239.54248	-781.49854	1334.28784	1177.57214	-761.51563	1110.17627	1169.88464	-760.02466	995.76666	1169.31970	-746.23102	859.03204	1206.75525	-750.62122	758.82202	1159.74390	-721.45465	761.07922	1176.11438	-716.27002	685.34332	1536.46423	-846.29504	914.07983	1301.69617	-889.49268	918.12738	1452.46875	-697.13226	935.15625	1307.25159	-724.81219	939.68823	1575.04089	-733.54828	623.86597	1554.12939	-693.07031	447.19318	1540.23987	-541.04492	312.23441	1489.79919	-406.92938	153.51273	1448.58838	-360.52234	152.67911	1457.14551	-500.95404	34.17156	1249.86157	-910.32623	629.14075	1302.61462	-995.39594	478.39648	1301.12061	-999.49158	284.55548	1351.47937	-1010.64264	71.45645	1403.98560	-966.48669	41.04569	1363.82202	-1150.20569	38.56621				1411.08643	-722.52991	1652.93018															 
172	1.710	1457.03821	-829.95673	1608.29651	1324.19055	-823.56342	1610.50696	1458.75623	-712.74713	1541.67114	1327.54065	-710.79022	1544.18823	1395.03870	-707.92157	1381.74402	1393.45337	-710.40106	1068.24878	1401.43958	-839.62244	1321.18311	1418.77393	-901.27637	1162.59351	1306.18225	-678.91650	1199.72656	1553.20923	-776.89197	1356.59900	1633.01770	-814.31177	1170.37085	1648.50208	-868.32800	1061.77954	1638.11731	-967.35437	982.36835	1595.00049	-1058.71765	914.75293	1643.78589	-1040.97107	895.95520	1630.46899	-1112.56592	857.45941	1238.46875	-794.82727	1334.84277	1176.49377	-775.59009	1110.74072	1168.87378	-774.66180	996.34589	1168.45496	-761.44568	859.47021	1205.99451	-766.34967	759.27393	1158.92432	-737.24359	761.32330	1175.79248	-731.76294	685.57715	1534.92432	-861.90582	914.04663	1300.88330	-904.66711	919.73230	1451.84338	-712.39923	934.93982	1306.61963	-739.59613	941.71954	1576.39246	-752.26575	622.66095	1558.08398	-714.24805	445.49936	1542.72229	-559.04059	314.65555	1491.05725	-420.53992	160.98198	1449.08789	-375.55487	164.00005	1456.72974	-502.81201	33.87257	1250.47034	-926.16443	631.11151	1304.41248	-1012.13995	480.83081	1301.40698	-1010.28638	285.34622	1351.72986	-1012.58282	72.22141	1403.47009	-967.15881	41.43129	1366.10925	-1152.09912	38.06483				1409.89270	-734.29065	1653.33826															 
173	1.720	1456.30505	-841.57233	1608.90955	1323.46423	-835.74805	1611.21082	1457.47156	-724.47644	1541.85583	1326.23340	-723.30396	1544.46350	1394.22400	-720.97882	1382.29602	1392.36218	-724.82458	1068.49121	1400.45569	-852.72919	1322.01233	1417.55872	-915.34076	1163.72290	1304.89563	-693.01941	1199.95068	1552.27124	-789.71667	1357.38733	1631.84912	-825.68756	1170.31152	1646.95972	-879.01208	1061.46594	1636.71777	-978.44153	982.74304	1593.74194	-1070.54260	916.25323	1642.13232	-1052.55457	896.62781	1628.99902	-1124.61560	859.09137	1237.56616	-807.85754	1335.66113	1175.47217	-789.66473	1111.60693	1167.90027	-789.51276	997.16168	1167.40259	-777.29529	860.15619	1204.94128	-783.66919	760.29657	1157.86768	-753.69543	761.89990	1175.24963	-748.22137	686.02441	1533.21887	-877.29352	914.11072	1299.71704	-919.34283	921.93756	1451.60852	-727.34277	934.71851	1306.40161	-753.68317	943.67615	1577.24536	-771.65253	621.24158	1561.05798	-736.69775	443.65796	1545.24756	-579.17505	316.64276	1493.45093	-436.76175	167.57156	1450.77698	-392.75769	175.26186	1456.12366	-505.18167	33.53093	1250.96155	-944.19489	633.95770	1305.79675	-1026.85339	481.77307	1301.81604	-1019.06812	285.91406	1351.88696	-1013.27655	72.50558	1403.20996	-967.46191	41.67589	1366.28101	-1152.67651	37.79104				1408.76904	-746.12543	1653.71106															 
